<?xml version="1.0" encoding="UTF-8" standalone="no"?>
<!-- Created with Inkscape (http://www.inkscape.org/) -->

<svg
   width="16mm"
   height="16mm"
   viewBox="0 0 16 16"
   version="1.1"
   id="svg1"
   xmlnsInkscape="http://www.inkscape.org/namespaces/inkscape"
   xmlnsSodipodi="http://sodipodi.sourceforge.net/DTD/sodipodi-0.dtd"
   xmlnsSvg="http://www.w3.org/2000/svg"
   sodipodiDocname="exclamation_question.svg"
   xmlns="http://www.w3.org/2000/svg">
  <defs
     id="defs1" />
  <g
     inkscapeLabel="Layer 1"
     inkscapeGroupmode="layer"
     id="layer1"
     transform="translate(-11.09892,-13.423816)">
    <path
       style="fill:#ffffff;stroke:#ffffff;stroke-width:1.87582;stroke-linecap:round;stroke-linejoin:round;stroke-dasharray:none;stroke-opacity:1"
       id="path34"
       d="m 15.908973,15.100833 c 0.351992,1.587364 0.533762,3.19898 0.6789,4.80836 0.124357,1.378954 0.201199,2.46069 0.212156,3.820558 0.0025,0.318474 -0.0198,0.636738 -0.0297,0.955107 -0.06139,0.323278 -0.05087,0.388435 -0.0595,0.190644 0,0 -0.002,9.4e-5 -0.002,9.4e-5 v 0 c 0.01659,0.19787 0.0021,0.13294 0.06355,-0.190692 0.0099,-0.318399 0.03227,-0.636693 0.0297,-0.955198 -0.01097,-1.359899 -0.08782,-2.441688 -0.212177,-3.820668 -0.145144,-1.609443 -0.326924,-3.22112 -0.678931,-4.808545 z" />
    <path
       style="fill:#ffffff;stroke:#ffffff;stroke-width:1.87582;stroke-linecap:round;stroke-linejoin:round;stroke-dasharray:none;stroke-opacity:1"
       id="path35"
       d="m 20.649523,15.420981 c 0.463525,-0.213619 0.455966,-0.232018 0.98422,-0.377613 0.150176,-0.04139 0.302377,-0.08033 0.458166,-0.101662 0.365447,-0.05004 0.734571,0.0192 1.094345,0.06539 0.108933,0.0076 0.569015,0.03657 0.687434,0.05811 0.218546,0.03976 0.37171,0.11299 0.570387,0.19785 0.269992,0.115321 0.188471,0.07529 0.388136,0.188793 0.0047,0.02719 0.01498,0.05411 0.01388,0.08157 -0.0014,0.03402 -0.01906,0.06651 -0.02121,0.100501 -0.0048,0.0748 0.01702,0.26541 0.02174,0.330709 0.02584,0.358403 -0.0067,0.09819 0.05265,0.477286 0.03196,0.217054 0.06524,0.440229 0.04212,0.659633 -0.02794,0.265236 -0.131182,0.529263 -0.207853,0.785789 -0.130318,0.43312 -0.02596,0.126386 -0.191866,0.527291 -0.08395,0.202865 -0.09737,0.284141 -0.213536,0.470544 -0.07174,0.115126 -0.162319,0.220925 -0.240509,0.332931 -0.03475,0.06982 -0.124222,0.255054 -0.167304,0.318237 -0.03476,0.05099 -0.08158,0.09526 -0.119729,0.144435 -0.038,0.04899 -0.07018,0.101182 -0.108613,0.149926 -0.03346,0.04243 -0.215413,0.248045 -0.246673,0.283571 -0.274302,0.21394 -0.435952,0.500021 -0.645027,0.756192 -0.03843,0.04709 -0.07271,0.09721 -0.117796,0.139757 -0.04785,0.04516 -0.106263,0.08121 -0.159395,0.121813 -0.128721,0.10634 -0.196582,0.148819 -0.291357,0.2757 -0.02927,0.03919 -0.04665,0.08407 -0.07249,0.124996 -0.06743,0.106782 -0.142292,0.209873 -0.22667,0.307243 -0.156204,0.131813 -0.0556,0.0306 -0.165923,0.187152 -0.01461,0.02072 -0.03914,0.03668 -0.04866,0.05946 -0.01273,0.03046 -0.01023,0.06412 -0.01632,0.09606 -0.05174,0.270716 -0.0029,-0.01198 -0.0434,0.229252 -0.05815,0.102801 -0.06036,0.212913 -0.07919,0.322473 -0.0069,0.04007 -0.0215,0.07893 -0.02951,0.11885 -0.02869,0.142892 -0.02453,0.153017 -0.03378,0.296744 0.01305,0.279062 0.02038,0.557966 0.01596,0.837306 -0.01227,0.06848 0.0089,0.138909 -0.0021,0.207398 -0.01389,0.08631 -0.05254,0.168745 -0.06724,0.254955 -0.05678,0.332864 0.02786,-0.02765 -0.05038,0.282259 -0.02939,0.102259 0.0052,0.07323 -0.06758,0.109984 0,0 0.001,0.0015 0.001,0.0015 v 0 c 0.07345,-0.03815 0.03901,-0.0084 0.06852,-0.111106 0.07837,-0.310506 -0.0064,0.0506 0.0504,-0.28229 0.01472,-0.08632 0.05338,-0.168866 0.06728,-0.255283 0.01102,-0.06848 -0.01015,-0.138909 0.0021,-0.207382 0.0045,-0.279316 -0.0028,-0.558197 -0.01596,-0.837234 0.0092,-0.143597 0.0051,-0.15371 0.03374,-0.296479 0.008,-0.03999 0.02265,-0.07893 0.02955,-0.119075 0.01882,-0.109525 0.02105,-0.219586 0.07918,-0.322361 0.04204,-0.250485 -0.01022,0.05262 0.0434,-0.229251 0.006,-0.03168 0.0033,-0.0651 0.01598,-0.09531 0.0095,-0.02285 0.03414,-0.03885 0.04878,-0.05963 0.110122,-0.156341 0.0092,-0.0548 0.165772,-0.186949 0.08444,-0.09746 0.15938,-0.200628 0.226857,-0.307505 0.02577,-0.04083 0.04309,-0.08561 0.07228,-0.124709 0.09467,-0.126772 0.162477,-0.169203 0.291102,-0.275465 0.05323,-0.04069 0.111738,-0.07684 0.159688,-0.122091 0.0451,-0.04256 0.07939,-0.0927 0.11783,-0.139801 0.209053,-0.256149 0.370684,-0.542202 0.644968,-0.75612 0.03143,-0.03571 0.213211,-0.241123 0.246777,-0.2837 0.0384,-0.04871 0.07057,-0.100877 0.108544,-0.149837 0.03821,-0.04927 0.08509,-0.09362 0.119908,-0.144698 0.04315,-0.06329 0.132384,-0.248109 0.16721,-0.318087 0.07823,-0.112065 0.168847,-0.217923 0.240619,-0.333111 0.116197,-0.186483 0.129621,-0.267737 0.213587,-0.47065 0.165947,-0.401028 0.06163,-0.09439 0.19193,-0.527465 0.07671,-0.256671 0.179968,-0.520812 0.207916,-0.786197 0.02311,-0.219489 -0.01017,-0.442747 -0.04214,-0.659887 -0.0593,-0.378901 -0.02679,-0.118806 -0.05264,-0.477186 -0.0047,-0.06457 -0.02645,-0.256013 -0.02176,-0.330271 0.0021,-0.03418 0.02002,-0.06685 0.02122,-0.101063 9.92e-4,-0.0279 -0.0098,-0.05518 -0.01476,-0.08276 -0.199795,-0.113559 -0.118373,-0.0736 -0.388372,-0.18891 -0.199049,-0.08501 -0.352094,-0.158183 -0.571038,-0.198012 -0.118453,-0.02155 -0.578325,-0.05042 -0.687368,-0.0581 -0.360075,-0.04623 -0.729404,-0.115446 -1.095154,-0.06536 -0.155859,0.02135 -0.308127,0.06031 -0.458369,0.101717 -0.528464,0.145667 -0.520936,0.164086 -0.984632,0.377793 z" />
    <path
       style="fill:#ffffff;stroke:#ffffff;stroke-width:2;stroke-linecap:round;stroke-linejoin:round;stroke-dasharray:none;stroke-opacity:1"
       id="path37"
       d="m 16.807893,28.004235 c 0,0.03767 0,0.07534 0,0.113009 0,0 0.002,0 0.002,0 v 0 c 0,-0.03767 0,-0.07534 0,-0.113009 z" />
    <path
       style="fill:#ffffff;stroke:#ffffff;stroke-width:2;stroke-linecap:round;stroke-linejoin:round;stroke-dasharray:none;stroke-opacity:1"
       id="path38"
       d="m 21.261245,27.992498 c 0,0.02511 0,0.05023 0,0.07534 0,0 0.002,0 0.002,0 v 0 c 0,-0.02511 0,-0.05022 0,-0.07534 z" />
  </g>
</svg>
